<svg xmlns="http://www.w3.org/2000/svg" width="67.705" height="65.893" viewBox="0 0 67.705 65.893">
  <g id="shopping-cart" transform="translate(0 0)">
    <g id="Group_2" data-name="Group 2">
      <g id="Group_1" data-name="Group 1">
        <path id="Path_1" data-name="Path 1" d="M142.676,491.516a7.068,7.068,0,1,0,7.068,7.068A7.068,7.068,0,0,0,142.676,491.516Zm0,11a3.927,3.927,0,1,1,3.927-3.927A3.927,3.927,0,0,1,142.676,502.511Z" transform="translate(-121.079 -439.759)" fill="#6fc3ff"/>
        <path id="Path_2" data-name="Path 2" d="M421.223,491.516a7.068,7.068,0,1,0,7.068,7.068A7.068,7.068,0,0,0,421.223,491.516Zm0,11a3.927,3.927,0,1,1,3.927-3.927A3.927,3.927,0,0,1,421.223,502.511Z" transform="translate(-369.781 -439.759)" fill="#6fc3ff"/>
        <path id="Path_3" data-name="Path 3" d="M67.385,18.982a1.964,1.964,0,0,0-1.257-.628L15,17.646l-1.414-4.32A7.226,7.226,0,0,0,6.833,8.458H1.571a1.571,1.571,0,1,0,0,3.142H6.833a4.084,4.084,0,0,1,3.77,2.749l9.974,30.08-.785,1.806a7.539,7.539,0,0,0,.707,6.833,7.3,7.3,0,0,0,5.89,3.3H56.94a1.571,1.571,0,1,0,0-3.142H26.389a4.006,4.006,0,0,1-3.3-1.885,4.319,4.319,0,0,1-.393-3.77l.628-1.414L56.39,42.7a8.639,8.639,0,0,0,7.461-6.6l3.77-15.786A1.335,1.335,0,0,0,67.385,18.982ZM60.788,35.4A5.341,5.341,0,0,1,56,39.558L23.326,42.935l-7.3-22.147,48.143.707Z" transform="translate(0 -8.458)" fill="#6fc3ff"/>
      </g>
    </g>
  </g>
</svg>
