<svg xmlns="http://www.w3.org/2000/svg" width="68.946" height="68.946" viewBox="0 0 68.946 68.946">
  <path id="user" d="M58.849,10.1A34.473,34.473,0,0,0,10.1,58.849,34.473,34.473,0,0,0,58.849,10.1ZM17.282,59.572a17.456,17.456,0,0,1,34.382,0,30.367,30.367,0,0,1-34.382,0Zm6.23-29.426A10.961,10.961,0,1,1,34.473,41.107,10.973,10.973,0,0,1,23.512,30.146ZM55.163,56.77A21.53,21.53,0,0,0,42.647,42.719a15,15,0,1,0-16.348,0A21.526,21.526,0,0,0,13.783,56.77a30.433,30.433,0,1,1,41.38,0Zm0,0" fill="#6fc3ff"/>
</svg>
